<svg width="50" height="60" viewBox="0 0 50 60" fill="none" xmlns="http://www.w3.org/2000/svg">
<path d="M6.25 60C4.53125 60 3.0599 59.4405 1.83594 58.3214C0.611979 57.2024 0 55.8571 0 54.2857V25.7143C0 24.1429 0.611979 22.7976 1.83594 21.6786C3.0599 20.5595 4.53125 20 6.25 20H9.375V14.2857C9.375 10.3333 10.8984 6.96429 13.9453 4.17857C16.9922 1.39286 20.6771 0 25 0C29.3229 0 33.0078 1.39286 36.0547 4.17857C39.1016 6.96429 40.625 10.3333 40.625 14.2857V20H43.75C45.4688 20 46.9401 20.5595 48.1641 21.6786C49.388 22.7976 50 24.1429 50 25.7143V54.2857C50 55.8571 49.388 57.2024 48.1641 58.3214C46.9401 59.4405 45.4688 60 43.75 60H6.25ZM6.25 54.2857H43.75V25.7143H6.25V54.2857ZM25 45.7143C26.7188 45.7143 28.1901 45.1548 29.4141 44.0357C30.638 42.9167 31.25 41.5714 31.25 40C31.25 38.4286 30.638 37.0833 29.4141 35.9643C28.1901 34.8452 26.7188 34.2857 25 34.2857C23.2812 34.2857 21.8099 34.8452 20.5859 35.9643C19.362 37.0833 18.75 38.4286 18.75 40C18.75 41.5714 19.362 42.9167 20.5859 44.0357C21.8099 45.1548 23.2812 45.7143 25 45.7143ZM15.625 20H34.375V14.2857C34.375 11.9048 33.4635 9.88095 31.6406 8.21429C29.8177 6.54762 27.6042 5.71429 25 5.71429C22.3958 5.71429 20.1823 6.54762 18.3594 8.21429C16.5365 9.88095 15.625 11.9048 15.625 14.2857V20Z" fill="#7B0424"/>
</svg>
