<svg width="50" height="50" viewBox="0 0 50 50" fill="none" xmlns="http://www.w3.org/2000/svg">
<path d="M25 50L21.375 46.4578C17.1667 42.3252 13.6875 38.7602 10.9375 35.7629C8.1875 32.7657 6 30.0749 4.375 27.6907C2.75 25.3065 1.61458 23.1153 0.96875 21.1172C0.322917 19.119 0 17.0754 0 14.9864C0 10.7175 1.3125 7.15259 3.9375 4.29155C6.5625 1.43052 9.83333 0 13.75 0C15.9167 0 17.9792 0.499546 19.9375 1.49864C21.8958 2.49773 23.5833 3.90554 25 5.72207C26.4167 3.90554 28.1042 2.49773 30.0625 1.49864C32.0208 0.499546 34.0833 0 36.25 0C40.1667 0 43.4375 1.43052 46.0625 4.29155C48.6875 7.15259 50 10.7175 50 14.9864C50 17.0754 49.6771 19.119 49.0312 21.1172C48.3854 23.1153 47.25 25.3065 45.625 27.6907C44 30.0749 41.8125 32.7657 39.0625 35.7629C36.3125 38.7602 32.8333 42.3252 28.625 46.4578L25 50ZM25 42.6431C29 38.7375 32.2917 35.3883 34.875 32.5954C37.4583 29.8025 39.5 27.3728 41 25.3065C42.5 23.2402 43.5417 21.401 44.125 19.7888C44.7083 18.1767 45 16.5758 45 14.9864C45 12.2616 44.1667 9.99092 42.5 8.17439C40.8333 6.35786 38.75 5.44959 36.25 5.44959C34.2917 5.44959 32.4792 6.05132 30.8125 7.25477C29.1458 8.45822 28 9.99092 27.375 11.8529H22.625C22 9.99092 20.8542 8.45822 19.1875 7.25477C17.5208 6.05132 15.7083 5.44959 13.75 5.44959C11.25 5.44959 9.16667 6.35786 7.5 8.17439C5.83333 9.99092 5 12.2616 5 14.9864C5 16.5758 5.29167 18.1767 5.875 19.7888C6.45833 21.401 7.5 23.2402 9 25.3065C10.5 27.3728 12.5417 29.8025 15.125 32.5954C17.7083 35.3883 21 38.7375 25 42.6431Z" fill="#7B0424"/>
</svg>
