<svg width="50" height="49" viewBox="0 0 50 49" fill="none" xmlns="http://www.w3.org/2000/svg">
<path d="M5 48.0337C3.625 48.0337 2.44792 47.5386 1.46875 46.5485C0.489583 45.5583 0 44.368 0 42.9775V15.1685C0 13.7781 0.489583 12.5878 1.46875 11.5976C2.44792 10.6074 3.625 10.1124 5 10.1124H15V5.05618C15 3.66573 15.4896 2.47542 16.4688 1.48525C17.4479 0.495084 18.625 0 20 0H30C31.375 0 32.5521 0.495084 33.5312 1.48525C34.5104 2.47542 35 3.66573 35 5.05618V10.1124H45C46.375 10.1124 47.5521 10.6074 48.5312 11.5976C49.5104 12.5878 50 13.7781 50 15.1685V42.9775C50 44.368 49.5104 45.5583 48.5312 46.5485C47.5521 47.5386 46.375 48.0337 45 48.0337H5ZM20 10.1124H30V5.05618H20V10.1124ZM45 32.8652H32.5V37.9213H17.5V32.8652H5V42.9775H45V32.8652ZM22.5 32.8652H27.5V27.809H22.5V32.8652ZM5 27.809H17.5V22.7528H32.5V27.809H45V15.1685H5V27.809Z" fill="#7B0424"/>
</svg>
