<svg width="50" height="51" viewBox="0 0 50 51" fill="none" xmlns="http://www.w3.org/2000/svg">
<path d="M25 50.5618C21.5833 50.5618 18.3542 49.8982 15.3125 48.5709C12.2708 47.2437 9.61458 45.4319 7.34375 43.1355C5.07292 40.8392 3.28125 38.1531 1.96875 35.0772C0.65625 32.0014 0 28.736 0 25.2809C0 21.7837 0.65625 18.5077 1.96875 15.4529C3.28125 12.3982 5.07292 9.72261 7.34375 7.42626C9.61458 5.12992 12.2708 3.31812 15.3125 1.99087C18.3542 0.663624 21.5833 0 25 0C28.4583 0 31.6979 0.663624 34.7188 1.99087C37.7396 3.31812 40.3854 5.12992 42.6562 7.42626C44.9271 9.72261 46.7188 12.3982 48.0312 15.4529C49.3438 18.5077 50 21.7837 50 25.2809C50 28.736 49.3438 32.0014 48.0312 35.0772C46.7188 38.1531 44.9271 40.8392 42.6562 43.1355C40.3854 45.4319 37.7396 47.2437 34.7188 48.5709C31.6979 49.8982 28.4583 50.5618 25 50.5618ZM25 45.3792C26.0833 43.8624 27.0208 42.2823 27.8125 40.639C28.6042 38.9958 29.25 37.2472 29.75 35.3933H20.25C20.75 37.2472 21.3958 38.9958 22.1875 40.639C22.9792 42.2823 23.9167 43.8624 25 45.3792ZM18.5 44.368C17.75 42.9775 17.0938 41.5344 16.5312 40.0386C15.9688 38.5428 15.5 36.9944 15.125 35.3933H7.75C8.95833 37.5 10.4688 39.3329 12.2812 40.8919C14.0938 42.4508 16.1667 43.6096 18.5 44.368ZM31.5 44.368C33.8333 43.6096 35.9062 42.4508 37.7188 40.8919C39.5312 39.3329 41.0417 37.5 42.25 35.3933H34.875C34.5 36.9944 34.0312 38.5428 33.4688 40.0386C32.9062 41.5344 32.25 42.9775 31.5 44.368ZM5.625 30.3371H14.125C14 29.4944 13.9062 28.6622 13.8438 27.8406C13.7812 27.019 13.75 26.1657 13.75 25.2809C13.75 24.3961 13.7812 23.5428 13.8438 22.7212C13.9062 21.8996 14 21.0674 14.125 20.2247H5.625C5.41667 21.0674 5.26042 21.8996 5.15625 22.7212C5.05208 23.5428 5 24.3961 5 25.2809C5 26.1657 5.05208 27.019 5.15625 27.8406C5.26042 28.6622 5.41667 29.4944 5.625 30.3371ZM19.125 30.3371H30.875C31 29.4944 31.0938 28.6622 31.1562 27.8406C31.2188 27.019 31.25 26.1657 31.25 25.2809C31.25 24.3961 31.2188 23.5428 31.1562 22.7212C31.0938 21.8996 31 21.0674 30.875 20.2247H19.125C19 21.0674 18.9062 21.8996 18.8438 22.7212C18.7812 23.5428 18.75 24.3961 18.75 25.2809C18.75 26.1657 18.7812 27.019 18.8438 27.8406C18.9062 28.6622 19 29.4944 19.125 30.3371ZM35.875 30.3371H44.375C44.5833 29.4944 44.7396 28.6622 44.8438 27.8406C44.9479 27.019 45 26.1657 45 25.2809C45 24.3961 44.9479 23.5428 44.8438 22.7212C44.7396 21.8996 44.5833 21.0674 44.375 20.2247H35.875C36 21.0674 36.0938 21.8996 36.1562 22.7212C36.2188 23.5428 36.25 24.3961 36.25 25.2809C36.25 26.1657 36.2188 27.019 36.1562 27.8406C36.0938 28.6622 36 29.4944 35.875 30.3371ZM34.875 15.1685H42.25C41.0417 13.0618 39.5312 11.2289 37.7188 9.66994C35.9062 8.11096 33.8333 6.95225 31.5 6.19382C32.25 7.58427 32.9062 9.02739 33.4688 10.5232C34.0312 12.019 34.5 13.5674 34.875 15.1685ZM20.25 15.1685H29.75C29.25 13.3146 28.6042 11.566 27.8125 9.92275C27.0208 8.27949 26.0833 6.69944 25 5.18258C23.9167 6.69944 22.9792 8.27949 22.1875 9.92275C21.3958 11.566 20.75 13.3146 20.25 15.1685ZM7.75 15.1685H15.125C15.5 13.5674 15.9688 12.019 16.5312 10.5232C17.0938 9.02739 17.75 7.58427 18.5 6.19382C16.1667 6.95225 14.0938 8.11096 12.2812 9.66994C10.4688 11.2289 8.95833 13.0618 7.75 15.1685Z" fill="#7B0424"/>
</svg>
