<svg width="50" height="51" viewBox="0 0 50 51" fill="none" xmlns="http://www.w3.org/2000/svg">
<path d="M33.75 22.7528C34.7917 22.7528 35.6771 22.3841 36.4062 21.6468C37.1354 20.9094 37.5 20.014 37.5 18.9607C37.5 17.9073 37.1354 17.0119 36.4062 16.2746C35.6771 15.5372 34.7917 15.1685 33.75 15.1685C32.7083 15.1685 31.8229 15.5372 31.0938 16.2746C30.3646 17.0119 30 17.9073 30 18.9607C30 20.014 30.3646 20.9094 31.0938 21.6468C31.8229 22.3841 32.7083 22.7528 33.75 22.7528ZM16.25 22.7528C17.2917 22.7528 18.1771 22.3841 18.9062 21.6468C19.6354 20.9094 20 20.014 20 18.9607C20 17.9073 19.6354 17.0119 18.9062 16.2746C18.1771 15.5372 17.2917 15.1685 16.25 15.1685C15.2083 15.1685 14.3229 15.5372 13.5938 16.2746C12.8646 17.0119 12.5 17.9073 12.5 18.9607C12.5 20.014 12.8646 20.9094 13.5938 21.6468C14.3229 22.3841 15.2083 22.7528 16.25 22.7528ZM25 39.1854C27.8333 39.1854 30.4062 38.3743 32.7188 36.7521C35.0312 35.1299 36.7083 32.9916 37.75 30.3371H12.25C13.2917 32.9916 14.9688 35.1299 17.2812 36.7521C19.5938 38.3743 22.1667 39.1854 25 39.1854ZM25 50.5618C21.5417 50.5618 18.2917 49.8982 15.25 48.5709C12.2083 47.2437 9.5625 45.4424 7.3125 43.1671C5.0625 40.8919 3.28125 38.2163 1.96875 35.1404C0.65625 32.0646 0 28.7781 0 25.2809C0 21.7837 0.65625 18.4972 1.96875 15.4213C3.28125 12.3455 5.0625 9.66994 7.3125 7.39466C9.5625 5.11938 12.2083 3.31812 15.25 1.99087C18.2917 0.663624 21.5417 0 25 0C28.4583 0 31.7083 0.663624 34.75 1.99087C37.7917 3.31812 40.4375 5.11938 42.6875 7.39466C44.9375 9.66994 46.7188 12.3455 48.0312 15.4213C49.3438 18.4972 50 21.7837 50 25.2809C50 28.7781 49.3438 32.0646 48.0312 35.1404C46.7188 38.2163 44.9375 40.8919 42.6875 43.1671C40.4375 45.4424 37.7917 47.2437 34.75 48.5709C31.7083 49.8982 28.4583 50.5618 25 50.5618ZM25 45.5056C30.5833 45.5056 35.3125 43.5463 39.1875 39.6278C43.0625 35.7093 45 30.927 45 25.2809C45 19.6348 43.0625 14.8525 39.1875 10.934C35.3125 7.01545 30.5833 5.05618 25 5.05618C19.4167 5.05618 14.6875 7.01545 10.8125 10.934C6.9375 14.8525 5 19.6348 5 25.2809C5 30.927 6.9375 35.7093 10.8125 39.6278C14.6875 43.5463 19.4167 45.5056 25 45.5056Z" fill="#7B0424"/>
</svg>
