<svg width="50" height="50" viewBox="0 0 50 50" fill="none" xmlns="http://www.w3.org/2000/svg">
<path d="M47.0833 50C41.2963 50 35.5787 48.7384 29.9306 46.2153C24.2824 43.6921 19.1435 40.1157 14.5139 35.4861C9.88426 30.8565 6.30787 25.7176 3.78472 20.0694C1.26157 14.4213 0 8.7037 0 2.91667C0 2.08333 0.277778 1.38889 0.833333 0.833333C1.38889 0.277778 2.08333 0 2.91667 0H14.1667C14.8148 0 15.3935 0.219907 15.9028 0.659722C16.412 1.09954 16.713 1.62037 16.8056 2.22222L18.6111 11.9444C18.7037 12.6852 18.6806 13.3102 18.5417 13.8194C18.4028 14.3287 18.1481 14.7685 17.7778 15.1389L11.0417 21.9444C11.9676 23.6574 13.0671 25.3125 14.3403 26.9097C15.6134 28.5069 17.0139 30.0463 18.5417 31.5278C19.9769 32.963 21.4815 34.294 23.0556 35.5208C24.6296 36.7477 26.2963 37.8704 28.0556 38.8889L34.5833 32.3611C35 31.9444 35.544 31.6319 36.2153 31.4236C36.8866 31.2153 37.5463 31.1574 38.1944 31.25L47.7778 33.1944C48.4259 33.3796 48.9583 33.7153 49.375 34.2014C49.7917 34.6875 50 35.2315 50 35.8333V47.0833C50 47.9167 49.7222 48.6111 49.1667 49.1667C48.6111 49.7222 47.9167 50 47.0833 50ZM8.40278 16.6667L12.9861 12.0833L11.8056 5.55556H5.625C5.85648 7.4537 6.18056 9.3287 6.59722 11.1806C7.01389 13.0324 7.61574 14.8611 8.40278 16.6667ZM33.2639 41.5278C35.0694 42.3148 36.9097 42.9398 38.7847 43.4028C40.6597 43.8657 42.5463 44.1667 44.4444 44.3056V38.1944L37.9167 36.875L33.2639 41.5278Z" fill="#7B0424"/>
</svg>
